<svg id="visual" viewBox="0 0 900 600" width="900" height="600" xmlns="http://www.w3.org/2000/svg" xmlns:xlink="http://www.w3.org/1999/xlink" version="1.1"><rect x="0" y="0" width="900" height="600" fill="#275637"></rect><defs><linearGradient id="grad1_0" x1="33.3%" y1="0%" x2="100%" y2="100%"><stop offset="20%" stop-color="#275637" stop-opacity="1"></stop><stop offset="80%" stop-color="#275637" stop-opacity="1"></stop></linearGradient></defs><defs><linearGradient id="grad2_0" x1="0%" y1="0%" x2="66.7%" y2="100%"><stop offset="20%" stop-color="#275637" stop-opacity="1"></stop><stop offset="80%" stop-color="#275637" stop-opacity="1"></stop></linearGradient></defs><g transform="translate(900, 0)"><path d="M0 486.7C-45.4 436.2 -90.8 385.7 -153.1 369.6C-215.4 353.4 -294.6 371.5 -344.2 344.2C-393.7 316.9 -413.6 244 -432.4 179.1C-451.2 114.2 -469 57.1 -486.7 0L0 0Z" fill="#547c56"></path></g><g transform="translate(0, 600)"><path d="M0 -486.7C62.9 -480.4 125.8 -474 186.3 -449.7C246.7 -425.4 304.7 -383.3 328.8 -328.8C353 -274.4 343.3 -207.6 364 -150.8C384.7 -93.9 435.7 -47 486.7 0L0 0Z" fill="#547c56"></path></g></svg>