<svg id="visual" viewBox="0 0 900 600" width="900" height="600" xmlns="http://www.w3.org/2000/svg" xmlns:xlink="http://www.w3.org/1999/xlink" version="1.1"><rect x="0" y="0" width="900" height="600" fill="#3d7845"></rect><g transform="translate(440.1411110560341 295.3688835714622)"><path d="M129.7 -214.4C170.2 -201.4 206.3 -170.7 225.5 -132C244.7 -93.3 246.8 -46.7 244.2 -1.5C241.6 43.7 234.3 87.3 213.8 123.9C193.4 160.4 160 189.7 122.1 208.4C84.3 227.1 42.2 235 2.8 230.1C-36.5 225.2 -73 207.4 -104.9 185.4C-136.8 163.3 -164.1 136.9 -177.1 105.3C-190.1 73.7 -188.8 36.8 -200.2 -6.6C-211.6 -50 -235.7 -100 -220.5 -127.7C-205.2 -155.4 -150.6 -160.9 -107.3 -172.2C-64 -183.5 -32 -200.8 6.3 -211.7C44.7 -222.7 89.3 -227.4 129.7 -214.4" fill="#60b66c"></path></g></svg>